<?xml version="1.0" encoding="UTF-8"?>
<!DOCTYPE svg PUBLIC "-//W3C//DTD SVG 1.1//EN" "http://www.w3.org/Graphics/SVG/1.1/DTD/svg11.dtd">
<!-- Creator: CorelDRAW (Versión OEM) -->
<svg xmlns="http://www.w3.org/2000/svg" xml:space="preserve" width="152px" height="121px" version="1.1" style="shape-rendering:geometricPrecision; text-rendering:geometricPrecision; image-rendering:optimizeQuality; fill-rule:evenodd; clip-rule:evenodd"
viewBox="0 0 5.49 4.38"
 xmlns:xlink="http://www.w3.org/1999/xlink"
 xmlns:xodm="http://www.corel.com/coreldraw/odm/2003">
 <defs>
  <style type="text/css">
   <![CDATA[
    .fil0 {fill:#228BE6;fill-rule:nonzero}
   ]]>
  </style>
 </defs>
 <g id="Capa_x0020_1">
  <metadata id="CorelCorpID_0Corel-Layer"/>
  <path class="fil0" d="M4.79 2.01c-0.01,-0.48 -0.18,-0.94 -0.5,-1.31 -0.39,-0.44 -0.95,-0.7 -1.54,-0.7 -0.59,0 -1.15,0.25 -1.54,0.7 -0.33,0.37 -0.5,0.84 -0.51,1.32 -0.4,0.07 -0.69,0.4 -0.7,0.81 0,0.01 0,0.01 0,0.02 0,0.47 0.38,0.85 0.84,0.85l0.62 0c0.28,0.41 0.76,0.68 1.29,0.68 0.77,0 1.43,-0.58 1.54,-1.34l0.1 -0.77c0.06,-0.48 -0.08,-0.96 -0.4,-1.32 -0.31,-0.36 -0.76,-0.56 -1.24,-0.56 -0.48,0 -0.94,0.2 -1.25,0.56 -0.31,0.36 -0.46,0.84 -0.39,1.32l0.1 0.77c0.02,0.18 0.08,0.36 0.17,0.52l-0.28 0c-0.07,-0.15 -0.12,-0.31 -0.14,-0.49l-0.1 -0.77c-0.01,-0.07 -0.02,-0.13 -0.02,-0.19 0,-0.02 0.01,-0.03 0.01,-0.04 0,-0.01 -0.01,-0.02 -0.01,-0.02 0,-0.46 0.16,-0.91 0.47,-1.26 0.36,-0.42 0.89,-0.65 1.44,-0.65 0.55,0 1.07,0.24 1.43,0.65 0.31,0.35 0.47,0.79 0.48,1.25 -0.01,0.01 -0.01,0.01 -0.01,0.02 0,0.01 0,0.03 0.01,0.04 -0.01,0.07 -0.01,0.13 -0.02,0.2l-0.1 0.78c-0.03,0.21 -0.09,0.4 -0.15,0.52 -0.01,0.02 -0.01,0.04 0,0.06 0.01,0.02 0.03,0.04 0.06,0.04l0.21 0c0.46,0 0.83,-0.38 0.83,-0.86 0,-0.42 -0.3,-0.77 -0.7,-0.83zm-3.45 1.01l-0.1 -0.77c-0.06,-0.44 0.07,-0.88 0.36,-1.21 0.29,-0.33 0.71,-0.51 1.15,-0.51 0.44,0 0.85,0.18 1.14,0.51 0.29,0.33 0.42,0.77 0.36,1.21l-0.1 0.77c-0.09,0.7 -0.7,1.23 -1.4,1.23 -0.45,0 -0.86,-0.22 -1.12,-0.55l0.44 0c0,0 0,0 0,0 0.03,0.15 0.17,0.27 0.34,0.27l0.55 0c0.18,0 0.34,-0.15 0.34,-0.34 0,-0.19 -0.16,-0.34 -0.34,-0.34l-0.55 0c-0.17,0 -0.31,0.12 -0.34,0.27 0,0 0,0 0,0l-0.53 0c-0.1,-0.16 -0.17,-0.34 -0.2,-0.54zm0.86 0.61c0,-0.11 0.09,-0.21 0.21,-0.21l0.55 0c0.11,0 0.2,0.1 0.2,0.21 0,0.11 -0.09,0.2 -0.2,0.2l-0.55 0c-0.12,0 -0.21,-0.09 -0.21,-0.2zm-1.25 -0.07l-0.11 0c-0.38,0 -0.7,-0.31 -0.7,-0.7 0,-0.01 0,-0.01 0,-0.02 0,-0.34 0.24,-0.62 0.57,-0.68 0,0.05 0,0.1 0.01,0.16l0.1 0.77c0.03,0.17 0.07,0.32 0.13,0.47zm3.71 0l-0.1 0c0.05,-0.13 0.09,-0.29 0.11,-0.46l0.1 -0.78c0.01,-0.06 0.02,-0.12 0.02,-0.17 0.33,0.06 0.56,0.35 0.56,0.7 0,0.39 -0.31,0.71 -0.69,0.71z"/>
 </g>
</svg>
